<?xml version="1.0" standalone="no"?>
<!DOCTYPE svg PUBLIC "-//W3C//DTD SVG 20010904//EN"
 "http://www.w3.org/TR/2001/REC-SVG-20010904/DTD/svg10.dtd">
<svg version="1.0" xmlns="http://www.w3.org/2000/svg"
 width="1200.000000pt" height="1554.000000pt" viewBox="0 0 1200.000000 1554.000000"
 preserveAspectRatio="xMidYMid meet">

<g transform="translate(0.000000,1554.000000) scale(0.100000,-0.100000)"
fill="#000000" stroke="none">
<path d="M4684 14060 c-281 -43 -579 -271 -732 -559 -53 -99 -107 -263 -123
-370 -18 -128 -8 -299 25 -394 32 -96 61 -142 120 -194 84 -74 248 -121 371
-107 178 20 339 109 497 272 219 227 358 535 361 797 1 121 -12 189 -53 280
-51 113 -163 226 -258 259 -54 20 -144 26 -208 16z"/>
<path d="M1915 12539 c-307 -46 -630 -314 -772 -640 -82 -189 -113 -428 -79
-599 44 -220 150 -332 353 -375 87 -19 126 -19 220 1 156 32 292 114 435 262
199 206 332 474 360 724 26 231 -53 435 -215 557 -87 66 -182 88 -302 70z"/>
<path d="M10261 12194 c-62 -16 -142 -55 -188 -90 -154 -117 -198 -459 -97
-759 96 -287 298 -521 567 -659 180 -91 374 -116 491 -63 107 49 223 188 264
317 139 435 -280 1129 -756 1251 -89 22 -204 24 -281 3z"/>
<path d="M4590 12170 c-297 -79 -581 -338 -706 -643 -65 -161 -77 -223 -78
-412 -1 -140 2 -181 18 -230 45 -144 101 -215 209 -268 249 -120 524 -50 771
198 177 178 312 419 363 649 8 39 15 118 15 176 1 184 -47 308 -166 426 -95
94 -145 117 -261 121 -66 2 -110 -2 -165 -17z"/>
<path d="M1835 10651 c-244 -64 -462 -222 -614 -447 -113 -168 -179 -369 -188
-574 -12 -266 62 -446 215 -528 274 -146 615 -34 874 286 176 220 275 450 293
687 18 229 -97 459 -276 555 -53 28 -74 33 -148 36 -61 3 -106 -1 -156 -15z"/>
<path d="M4587 10231 c-226 -63 -449 -231 -594 -449 -209 -314 -252 -758 -94
-985 88 -127 289 -199 467 -168 159 28 305 111 449 256 276 276 427 687 360
974 -34 145 -130 278 -251 351 -55 33 -63 35 -163 37 -79 2 -123 -2 -174 -16z"/>
<path d="M7114 9910 c-157 -24 -283 -103 -337 -214 -48 -97 -61 -168 -61 -316
0 -187 33 -320 123 -498 171 -340 553 -596 865 -580 101 5 152 28 235 106 214
201 236 521 60 875 -64 129 -135 231 -233 335 -95 100 -169 158 -268 211 -129
69 -269 99 -384 81z"/>
<path d="M1824 8711 c-269 -72 -527 -292 -665 -565 -90 -176 -124 -333 -117
-537 10 -265 92 -404 283 -474 240 -90 507 0 744 250 220 233 351 531 351 799
0 182 -48 306 -164 422 -97 96 -145 118 -266 121 -68 2 -115 -3 -166 -16z"/>
<path d="M8290 6159 c-120 -31 -196 -73 -275 -153 -98 -99 -138 -176 -143
-282 -4 -70 0 -91 25 -167 93 -269 361 -515 674 -620 366 -122 816 -33 943
186 64 109 74 310 24 435 -80 196 -245 360 -483 480 -253 127 -558 175 -765
121z"/>
<path d="M5682 6109 c-203 -31 -370 -150 -451 -319 -32 -66 -36 -84 -35 -150
2 -157 88 -323 254 -489 196 -196 425 -304 699 -330 260 -24 507 43 637 173
84 84 109 156 108 311 0 93 -4 120 -26 177 -40 106 -86 175 -178 269 -162 165
-402 291 -660 344 -95 20 -266 27 -348 14z"/>
<path d="M2952 6050 c-155 -22 -265 -73 -363 -170 -74 -73 -133 -178 -144
-257 -21 -156 98 -393 286 -568 287 -268 716 -369 1075 -254 235 75 338 208
339 434 0 177 -58 307 -205 455 -207 209 -524 348 -830 364 -52 2 -123 1 -158
-4z"/>
</g>
</svg>
